# xmcd
#
# Track frame offsets:
#	150
#	12093
#	29802
#	41907
#	53287
#	68022
#	77868
#	89278
#	105241
#	117295
#	131209
#	146245
#	162208
#	175109
#	190265
#	203268
#	217266
#	231080
#	244376
#	257228
#	267727
#	278774
#	291110
#	307381
#
# Disc length: 4304
#
# Revision: 1
# Processed by: cddbd v1.5.1PL0 Copyright (c) Steve Scherf et al.
# Submitted via: EasyCDDAExtractor 5.0.4.1
# Normalized: r0:DSETVAR1
#
DISCID=6c10ce18
DTITLE=Various Artist - COUNTRY Ultimate Collection CD2
DYEAR=2002
DGENRE=Country
TTITLE0=The Blues Brothers Band - Theme From Rawhide
TTITLE1=Barbara Fairchaild - Mississippi
TTITLE2=Tammy Winette - Stand By Your Man
TTITLE3=Lynne Anderson - Country Girl
TTITLE4=Olivia Newton John - Banks Of The Ohio
TTITLE5=Hank Locklin - Please Help Me I'm Falling
TTITLE6=Johnny Paycheck - Release Me
TTITLE7=Billy Joe Spears - Blanket On The Ground
TTITLE8=Tammy Winette - There Goes My Everything
TTITLE9=Marty Robins - All Around Cowboy
TTITLE10=Don Williams - I Recall A Gipsy
TTITLE11=Bobby Bare - The Gambler
TTITLE12=Johnny Paycheck - Barstool Mountain
TTITLE13=Johnny Cash - Ain't Gonna Host Ni More
TTITLE14=George Jones - Tennessee Wiskey
TTITLE15=Dolly Parton - I Will Always Love You
TTITLE16=Willie Nelson - Funny How Time Sleeps
TTITLE17=Patty Page - Tennessee Waltz
TTITLE18=Waylon Jennings - My Heroes Always Been Cowboys
TTITLE19=Willie Nelson - Blue Eyes Crying In The Rain
TTITLE20=Johnny Cash - I Forgot More Than You'll Ever Know
TTITLE21=D.Allen Goe and D.Sherill - Fool Inside On Me
TTITLE22=Merie Haggard - obody's Darling But Mine
TTITLE23=Willie Nelson - Mama's Don't Let Your Babies Grow Up To Be
EXTD=
EXTT0=
EXTT1=
EXTT2=
EXTT3=
EXTT4=
EXTT5=
EXTT6=
EXTT7=
EXTT8=
EXTT9=
EXTT10=
EXTT11=
EXTT12=
EXTT13=
EXTT14=
EXTT15=
EXTT16=
EXTT17=
EXTT18=
EXTT19=
EXTT20=
EXTT21=
EXTT22=
EXTT23=
PLAYORDER=
